<mxfile host="app.diagrams.net" modified="2023-12-23T19:59:38.867Z" agent="Mozilla/5.0 (X11; Linux x86_64) AppleWebKit/537.36 (KHTML, like Gecko) Chrome/120.0.0.0 Safari/537.36" version="22.1.11" etag="n79LtlzptB5lm24eqG5d" type="github">
  <diagram name="Page-1" id="-j--laGM-yMGv9LrXaSR">
    <mxGraphModel>
      <root>
        <mxCell id="0" />
        <mxCell id="1" parent="0" />
      </root>
    </mxGraphModel>
  </diagram>
</mxfile>
